<?xml version="1.0" standalone="no"?>
<!DOCTYPE svg PUBLIC "-//W3C//DTD SVG 20010904//EN"
 "http://www.w3.org/TR/2001/REC-SVG-20010904/DTD/svg10.dtd">
<svg version="1.0" xmlns="http://www.w3.org/2000/svg"
 width="800.000000pt" height="800.000000pt" viewBox="0 0 800.000000 800.000000"
 preserveAspectRatio="xMidYMid meet">
<metadata>
Created by potrace 1.11, written by Peter Selinger 2001-2013
</metadata>
<g transform="translate(0.000000,800.000000) scale(0.100000,-0.100000)"
fill="#000000" stroke="none">
<path d="M4945 7299 c-132 -28 -188 -45 -252 -74 -264 -121 -460 -347 -527
-605 -18 -71 -35 -192 -31 -227 1 -13 2 -23 1 -23 -14 0 -232 -46 -288 -60
-77 -20 -256 -80 -358 -120 -257 -101 -646 -341 -811 -501 -213 -206 -373
-493 -527 -944 -131 -386 -159 -463 -209 -590 -31 -77 -78 -183 -106 -235 -53
-103 -149 -254 -167 -265 -7 -4 -25 -28 -41 -53 l-29 -46 -72 -2 c-180 -6
-294 -26 -370 -65 -65 -33 -70 -50 -83 -264 -3 -49 -8 -112 -10 -140 -2 -27
-7 -90 -10 -140 -4 -49 -8 -110 -10 -135 -2 -25 -7 -85 -10 -135 -3 -49 -8
-115 -11 -145 -2 -30 -7 -86 -9 -125 -2 -38 -7 -104 -10 -145 -11 -143 -14
-185 -20 -265 -3 -44 -8 -105 -10 -135 -14 -148 -14 -243 0 -271 18 -34 85
-81 156 -110 105 -42 297 -92 419 -109 41 -6 86 -12 100 -14 31 -5 115 -14
195 -21 33 -3 76 -8 95 -10 19 -3 60 -7 90 -10 30 -3 71 -7 90 -10 19 -2 62
-7 95 -10 125 -12 151 -15 195 -20 25 -2 92 -9 150 -15 58 -6 119 -13 135 -15
17 -2 66 -6 110 -10 44 -4 87 -8 95 -10 8 -2 53 -6 99 -10 47 -4 92 -8 102
-10 10 -2 49 -6 86 -10 37 -3 82 -8 98 -10 17 -2 62 -7 100 -10 39 -3 86 -8
105 -10 19 -2 62 -7 95 -10 33 -3 71 -8 85 -10 14 -2 61 -7 105 -11 44 -3 89
-8 99 -10 10 -2 51 -6 90 -9 39 -3 82 -8 96 -10 14 -2 61 -7 105 -10 44 -4 87
-8 95 -10 8 -2 49 -6 90 -9 41 -4 86 -9 100 -11 14 -2 54 -7 90 -10 36 -4 81
-8 100 -10 19 -2 67 -7 105 -10 39 -4 81 -8 95 -10 14 -2 57 -6 95 -10 39 -3
84 -8 100 -10 17 -2 62 -6 100 -10 39 -4 81 -8 95 -10 14 -2 57 -7 95 -10 39
-4 81 -8 95 -10 14 -2 57 -7 95 -10 39 -3 86 -8 105 -11 33 -4 143 -15 305
-32 91 -9 432 -9 515 0 116 13 214 51 245 95 14 20 21 68 30 203 3 47 8 108
10 135 4 53 11 151 20 280 3 44 7 100 10 125 2 25 7 88 10 140 3 53 8 116 10
140 2 25 7 88 10 140 4 52 8 113 10 135 2 22 6 87 10 145 4 58 9 121 10 140 2
19 7 86 10 148 l7 114 -50 46 c-80 76 -285 145 -554 188 l-106 17 15 51 c8 28
17 62 19 76 3 14 9 48 14 75 27 138 39 401 25 555 -9 100 -15 165 -20 190 -2
14 -6 45 -9 70 -7 49 -11 76 -27 160 -6 30 -12 66 -15 80 -7 42 -24 119 -55
247 -15 66 -31 135 -34 153 -14 80 -220 623 -307 810 l-45 96 70 64 c151 139
251 326 283 530 10 65 12 178 3 225 -4 22 -9 58 -12 81 -4 23 -16 70 -28 105
-109 318 -376 548 -724 621 -65 13 -278 18 -330 7z"/>
</g>
</svg>
